PathFileType	4	(X/Y/Z)	C:/Users/beibeiliu/ov580/test_trc/capture2\sequence.24_training_dense_right.trc
DataRate	CameraRate	NumFrames	NumMarkers	Units	OrigDataRate	OrigDataStartFrame	OrigNumFrames
120	120	25	19	mm	120	151	400
Frame#	Time	ThumbCMC			ThumbMCP			ThumbIP			ThumbTip			IndexMCP			IndexPIP			IndexTip			MiddleMCP			MiddlePIP			MiddleTip			RingMCP			RingPIP			RingTip			PinkyMCP			PinkyPIP			PinkyTip			BackHand1			BackHand2			BackHand3	
		X0	Y0	Z0	X1	Y1	Z1	X2	Y2	Z2	X3	Y3	Z3	X4	Y4	Z4	X5	Y5	Z5	X6	Y6	Z6	X7	Y7	Z7	X8	Y8	Z8	X9	Y9	Z9	X10	Y10	Z10	X11	Y11	Z11	X12	Y12	Z12	X13	Y13	Z13	X14	Y14	Z14	X15	Y15	Z15	X16	Y16	Z16	X17	Y17	Z17	X18	Y18	Z18	
150	1.25	177.679	77.1967	26.7817	139.33	76.4655	33.9965	113.264	68.3265	31.5931	94.7468	48.8798	25.9766	132.202	57.1159	-25.8165	106.741	60.5936	-28.7309	76.09	61.4416	-26.1889	124.531	36.2014	-22.2099	94.7185	40.3983	-23.4653	65.2753	46.8312	-17.3175	121.524	24.1469	-3.4319	101.037	40.7186	16.7186	122.373	54.5369	34.5977	124.728	17.8356	16.9925	115.402	35.7645	37.4013	145.726	50.1919	47.1998	175.344	16.8524	4.77911	199.924	20.3054	23.1051	192.122	46.1132	2.23946	
151	1.25833	171.082	79.9492	25.1915	135.014	82.1106	35.4908	108.239	70.2914	28.5307	91.1002	53.6153	25.2862	128.449	63.2918	-26.571	102.342	63.3739	-28.0779	72.1715	65.0005	-28.6845	121.645	40.5257	-22.1401	92.4169	46.5902	-25.9524	64.3878	55.5674	-22.3117	110.356	27.1592	-4.92307	94.3217	44.2971	15.8126	115.407	55.7812	34.9228	115.955	17.8126	17.2005	109.921	41.4349	37.0764	140.434	51.4774	45.3254	169.497	20.3365	5.00204	195.686	18.6746	26.7293	187.168	48.9079	2.86232	
152	1.26667	166.895	79.1817	26.6525	131.478	85.8794	34.1562	98.6006	79.8815	26.1778	82.8559	64.2212	20.0093	123.578	65.5827	-27.4504	97.6021	70.9233	-33.2658	71.5528	71.7149	-35.4246	112.121	47.1389	-27.9142	87.1383	56.0339	-31.4233	57.5496	59.6096	-28.5917	108.045	33.456	-7.7054	88.4489	49.956	6.82067	107.93	63.3843	30.6682	110.3	25.6435	12.3418	102.659	46.1036	35.4414	128.198	56.3779	42.9605	162.08	18.7631	4.87051	187.886	25.616	25.5595	182.724	52.8898	4.12012	
153	1.275	162.455	83.9837	26.5846	123.926	91.5393	29.4464	93.0324	86.5096	19.7124	74.556	74.0069	14.8406	120.035	75.9875	-35.3059	96.3295	79.0062	-42.3637	72.5554	78.9586	-48.331	114.5	55.3427	-32.7472	82.6781	61.999	-41.477	55.1083	72.9291	-44.9121	99.7461	42.4745	-17.1529	80.8001	57.9198	0.573553	98.1437	68.6808	26.3447	100.069	31.824	5.12028	91.8589	52.868	25.2436	119.18	64.5404	34.7483	152.367	24.5396	1.58381	175.501	24.3912	20.4766	175.524	53.4684	3.93299	
154	1.28333	153.192	85.4633	23.9706	115.769	96.5289	23.485	87.4973	92.6389	14.3278	67.1992	80.0924	5.13942	116.426	78.362	-42.7874	96.7476	86.3468	-55.426	74.7675	86.5192	-65.1142	109.304	59.299	-41.4317	86.2601	67.1284	-53.618	57.9732	80.1115	-64.0939	96.2302	45.8974	-24.4483	71.3758	61.6246	-13.3949	84.8286	79.3001	12.6695	90.5933	37.136	-1.80789	78.8775	58.7379	13.4431	102.452	71.4527	31.4465	143.352	30.9029	1.43441	162.464	25.0245	23.7124	167.878	56.1735	0.379638	
155	1.29167	146.687	86.6025	22.8707	109.687	101.755	18.9497	80.9182	99.4482	6.55319	65.2318	82.757	-2.04484	118.443	80.3382	-47.6792	98.5001	88.4124	-63.148	85.172	92.2107	-76.6658	109.637	65.9748	-49.953	86.7275	72.0598	-66.1686	64.695	85.1582	-81.1106	91.4163	49.2585	-30.5482	66.4529	70.3135	-25.4984	77.693	85.7875	3.71153	83.9792	42.5583	-10.3686	71.4525	67.6254	5.65324	95.4731	78.2985	24.1425	131.608	30.1641	-3.81149	150.159	26.9735	23.2864	159.162	55.401	2.75692	
156	1.3	141.611	90.4037	20.8247	107.379	103.554	18.6109	80.4016	102.271	4.61844	62.4659	89.7304	-7.175	121.755	84.5364	-50.4197	104.534	92.3813	-69.441	90.7727	95.9576	-83.8851	108.948	66.6111	-52.1965	96.4849	77.545	-69.2371	71.3814	86.825	-90.6655	89.9259	57.6268	-40.5162	67.8093	79.1826	-33.5542	75.5502	91.8159	-4.71915	79.1299	48.5339	-15.6101	68.7863	73.4478	-4.7632	90.3431	82.619	20.9174	126.45	34.4911	-5.77552	143.832	30.2371	22.4096	155.067	54.3038	0.68104	
157	1.30833	139.561	92.1378	23.359	102.252	106.026	11.6026	76.6634	104.979	-3.21375	61.5139	87.7334	-13.6835	123.61	84.3758	-48.2822	111.345	96.3569	-69.9079	95.5809	100.51	-90.2426	111.545	71.0332	-56.1584	95.4217	79.3273	-75.5936	78.6106	88.9444	-96.7419	87.8804	57.161	-40.3585	67.8233	80.2018	-40.5164	70.7232	93.4555	-8.00878	76.3849	52.0305	-20.049	66.1581	77.3599	-9.16736	82.7846	85.2777	16.4443	125.897	34.238	-2.70403	141.22	29.7407	21.8024	152.971	58.3383	1.7884	
158	1.31667	134.785	92.0139	18.8826	102.891	109.169	13.3631	77.2137	106.496	-4.4742	58.9214	91.8675	-18.7608	124.365	84.534	-51.7978	115.878	96.3265	-69.3679	100.236	99.0396	-91.6535	112.562	68.8049	-54.309	101.023	79.1046	-75.9171	85.2561	89.0128	-98.8375	89.6374	60.5101	-43.2546	69.8092	82.8882	-43.4337	75.7227	98.8626	-10.7508	74.2883	54.281	-22.9439	66.015	81.9665	-11.1382	79.7289	86.5962	16.2466	120.286	35.7736	-7.72816	134.207	32.3194	20.6247	150.033	58.4929	1.90453	
159	1.325	136.303	91.863	22.49	102.886	105.536	10.3678	80.9463	108.504	-4.84635	61.0529	92.8857	-21.9868	127.819	86.2335	-52.3537	118.322	94.3658	-69.5316	107.437	101.942	-93.7901	116.182	69.2975	-53.6053	102.65	80.4333	-81.1633	92.8484	89.471	-99.8196	92.7448	62.9406	-43.9874	70.4912	86.4537	-44.9335	72.6448	97.9433	-14.2051	78.4352	56.1615	-24.817	63.8503	82.2604	-12.8114	82.8197	89.6879	10.4487	118.986	34.0066	-3.84692	128.006	28.3958	20.9367	145.704	53.0168	1.30956	
160	1.33333	134.121	88.0626	18.5955	104.989	111.28	9.8984	82.263	114.344	-9.1718	63.688	97.9003	-26.1441	132.912	84.9505	-51.9161	123.2	93.2133	-71.4337	112.975	99.376	-97.8754	120.433	71.2119	-58.2858	111.63	81.9579	-81.6777	100.451	89.0308	-102.129	94.0957	64.0783	-49.7967	75.9398	87.5043	-48.6236	77.4712	98.3797	-15.6651	76.7957	57.7931	-28.3862	67.745	81.9298	-19.1829	80.9315	88.5713	8.44287	121.382	34.2611	-4.342	127.051	27.2489	19.6304	148.919	54.7728	4.60256	
161	1.34167	137.586	88.4048	22.3103	107.644	110.066	6.55373	85.6611	112.016	-15.6819	71.0644	101.241	-27.9141	138.921	81.2519	-50.8842	129.448	89.5864	-73.2955	121.464	97.424	-98.9484	127.059	69.0679	-58.4836	116.537	74.8038	-79.466	112.227	88.5317	-104.539	98.8644	61.2206	-49.8086	79.9995	85.7381	-51.8994	79.0797	98.1308	-23.1796	81.3329	58.1965	-31.3157	68.5375	80.8794	-20.1246	83.836	86.9955	7.51078	124.159	35.3439	-7.86708	130.705	26.4278	24.3853	151.631	51.8115	6.71671	
162	1.35	140.119	86.518	19.955	112.966	109.738	4.48706	94.0735	111.015	-16.5488	78.0418	99.6473	-31.8775	144.358	77.0743	-48.8338	138.107	85.0377	-72.8792	135.337	93.4307	-94.4552	133.065	63.8126	-58.5403	129.342	73.0784	-81.3476	122.361	85.6973	-109.89	107.038	60.0742	-52.4901	89.3577	83.1975	-57.5999	88.0247	96.5007	-24.4352	85.0335	51.9228	-34.1481	75.4725	80.733	-25.9803	90.5457	85.5692	2.71544	123.264	31.088	-8.67452	129.645	23.2806	22.7846	152.979	52.4482	5.23856	
163	1.35833	143.821	86.4245	23.4917	117.304	105.632	0.677553	98.9628	106.42	-21.4216	84.5065	96.5867	-37.3553	154.64	77.3006	-52.7924	148.892	82.7325	-73.5526	143.467	87.2941	-100.321	143.836	60.5402	-55.9653	137.182	66.2594	-82.4725	134.848	79.7082	-106.696	113.496	54.5983	-54.3828	93.6735	78.5195	-59.5567	90.0453	92.3626	-30.386	93.3291	51.6102	-38.0147	83.0289	77.8613	-31.8278	95.2436	85.3578	-0.652989	131.462	29.5271	-6.47593	133.513	22.4415	21.353	155.598	48.8298	11.3339	
164	1.36667	145.852	82.1311	22.3278	122.658	103.963	0.69061	106.298	104.847	-25.9154	94.0393	94.015	-39.0245	160.843	69.0971	-49.2372	160.9	79.9614	-75.248	156.912	82.9175	-95.9635	152.328	57.0415	-56.941	150.235	64.086	-82.1827	146.349	72.7202	-110.967	122.685	51.6076	-55.522	104.101	74.7208	-61.7858	98.9831	89.7395	-31.2045	101.733	46.2626	-40.8806	85.7239	72.1295	-36.3051	99.1712	82.3096	-4.18104	135.256	24.8837	-5.84827	134.976	19.9988	26.8499	159.102	46.3772	13.6838	
165	1.375	150.503	78.996	24.1798	128.122	101.327	-0.918739	113.159	103.024	-30.2822	101.451	87.6605	-44.7032	171.075	67.5058	-45.7984	171.023	74.0672	-73.9941	169.461	77.6232	-94.6738	157.301	48.4434	-53.5434	159.157	56.9218	-83.6595	158.524	64.0738	-110.354	129.894	45.2388	-55.4751	117.334	69.6011	-65.126	105.19	84.853	-34.812	112.113	46.5208	-44.1223	98.2859	68.5969	-42.673	102.507	79.2599	-8.81595	142.486	23.2954	-1.54038	137.838	18.5285	24.6722	163.698	43.6585	14.0951	
166	1.38333	154.004	77.9169	20.0153	132.811	96.4663	-3.41017	120.293	100.899	-26.9066	110.507	86.2188	-45.0006	176.366	61.3936	-45.2799	178.612	68.7196	-71.7611	180.659	72.2713	-93.5276	170.48	47.4536	-53.3599	173.37	54.2155	-79.3781	174.77	61.9138	-109.206	140.576	41.6479	-53.9895	121.588	65.1506	-65.6651	112.94	81.6266	-38.7276	121.903	38.5169	-41.2802	104.106	63.5237	-44.6457	110.72	75.4959	-16.9047	148.28	23.2352	-3.83405	142.82	18.023	24.7836	169.967	40.8946	16.0426	
167	1.39167	157.987	79.0395	23.2609	137.399	94.5719	-3.05756	125.713	95.2218	-34.5592	116.046	81.7789	-48.001	188.992	61.6833	-42.3775	190.38	66.0012	-64.8135	190.868	66.3275	-93.5701	180.34	44.538	-48.8909	182.579	48.1496	-74.2407	186.237	52.8593	-106.22	149.878	37.45	-52.7826	133.528	62.7285	-67.1167	119.523	76.7666	-41.1422	128.138	33.8039	-43.5975	115.377	59.2031	-47.0836	115.014	69.7154	-16.5641	153.554	19.9959	-2.26259	147.696	14.5777	28.5825	174.324	37.8909	17.8834	
168	1.4	159.792	78.9736	25.2325	140.409	89.1638	-5.73157	131.678	88.8252	-31.416	124.64	74.4958	-50.3679	194.253	59.2315	-36.9708	196.869	61.6091	-66.047	200.202	62.5195	-88.3176	187.639	40.874	-43.9947	193.12	44.1426	-70.004	196.067	47.2536	-99.6529	157.805	31.7066	-52.0667	139.287	56.684	-67.5569	128.262	73.473	-40.4812	134.701	30.4971	-46.6721	123.293	56.0196	-45.358	119.625	66.0881	-15.7526	160.52	15.9463	2.24245	155.375	15.2823	28.7227	176.471	37.9947	23.0345	
169	1.40833	159.689	76.3735	24.8451	142.153	88.5352	-7.86125	135.458	85.1131	-34.0104	129.553	69.4515	-57.5269	199.385	54.964	-38.7448	204.25	60.4348	-58.4739	209.507	60.7855	-81.412	195.969	38.6574	-39.331	205.077	42.2053	-68.2028	209.568	44.5885	-96.0137	168.106	29.0906	-47.7276	149.816	49.8975	-66.4456	133.935	66.8867	-41.5237	143.708	25.2235	-44.6844	127.677	46.0496	-46.5425	128.782	59.6084	-13.2986	167.215	13.1051	4.41481	157.282	17.4268	36.8899	178.746	39.9706	27.0198	
170	1.41667	158.282	73.8845	21.6314	141.634	84.7787	-10.5991	139.629	77.6746	-41.2892	138.134	59.084	-54.0213	204.86	54.9852	-27.6039	211.408	57.0521	-50.4069	221.558	55.6416	-78.1909	203.19	34.3435	-32.9809	216.124	39.6085	-60.6736	221.973	39.8236	-89.2223	179.751	26.3674	-41.5587	163.768	38.5894	-63.699	138.336	57.0802	-44.1399	155.366	18.9587	-38.5675	136.2	41.7802	-42.4625	131.223	49.919	-9.98198	171.661	13.5691	9.90091	160.452	16.0851	40.2418	178.374	40.469	32.6439	
171	1.425	156.004	74.3963	22.4893	144.677	75.3875	-9.71464	147.867	65.8217	-39.1788	150.471	48.1975	-54.3718	213.559	54.3622	-17.6407	223.953	54.0197	-39.9887	235.896	51.9686	-62.1736	215.433	33.8729	-22.2145	228.477	33.1241	-46.7308	240.393	34.5101	-73.0924	190.069	18.4358	-31.6643	176.006	34.2855	-57.0796	146.668	47.7679	-42.4728	167.81	13.2137	-33.8791	147.298	30.1991	-41.597	137.384	44.2578	-9.21087	177.317	14.2647	21.1203	161.115	14.1995	44.5123	180.457	44.7761	41.1424	
172	1.43333	155.311	69.443	23.1664	147.815	70.8105	-11.7157	153.593	63.0275	-41.8831	161.583	39.9158	-53.7716	217.682	54.6462	-6.40123	233.612	55.2342	-29.4348	249.204	49.1606	-49.5083	221.228	35.7044	-10.3903	239.308	35.9934	-33.4129	252.138	31.1357	-56.3998	200.17	18.1278	-25.705	187.956	25.2384	-51.3994	159.391	43.4753	-42.1713	174.733	4.47435	-25.026	152.943	24.7745	-37.7592	144.656	39.3081	-9.51865	180.474	12.3907	26.3805	161.222	14.8586	49.0932	178.104	40.6699	45.1463	
173	1.44167	155.269	66.2761	25.9616	151.217	67.2638	-10.1007	159.437	60.7543	-39.883	167.955	37.038	-53.5116	223.317	53.0045	-2.11947	237.425	50.1203	-20.3272	253.727	43.0009	-39.4285	224.455	30.43	-4.04764	243.465	32.7707	-22.7396	261.655	29.8492	-46.3711	204.432	15.4923	-18.5924	195.245	25.9268	-46.1062	163.707	40.1374	-38.8026	180.009	2.89839	-21.4203	163.302	22.6809	-36.4571	147.387	38.7643	-10.6075	179.038	11.4722	31.1048	159.561	11.2347	53.8697	179.22	43.7442	47.9912	
174	1.45	155.873	66.38	27.7713	156.529	65.2936	-11.68	162.328	58.8307	-35.4218	172.434	36.5561	-52.3491	226.141	50.239	2.89263	241.74	50.0702	-14.7659	260.78	42.2102	-33.0228	225.539	27.6333	1.25381	243.984	28.991	-16.2646	267.317	30.6397	-36.0859	208.796	12.8403	-14.2758	198.108	24.528	-45.0642	167.988	36.7355	-38.5357	185.236	3.45327	-19.7441	167.891	20.7799	-35.0242	153.675	36.1098	-8.73562	182.736	8.28782	34.3795	157.546	7.50001	53.4764	177.098	39.4396	50.3499	
